PathFileType	4	(X/Y/Z)	D:\Research_projects\MuscleProsody\BulkSports2Dtrack\RetrackedSports2D\p1_sample60_cam1\p1_sample60_cam1_Sports2D\p1_sample60_cam1_Sports2D_px_person00.trc
DataRate	CameraRate	NumFrames	NumMarkers	Units	OrigDataRate	OrigDataStartFrame	OrigNumFrames
60	60	6	22	m	60	292	780
Frame#	Time	Hip			RHip			RKnee			RAnkle			RBigToe			RSmallToe			RHeel			LHip			LKnee			LAnkle			LBigToe			LSmallToe			LHeel			Neck			Head			Nose			RShoulder			RElbow			RWrist			LShoulder			LElbow			LWrist		
		X1	Y1	Z1	X2	Y2	Z2	X3	Y3	Z3	X4	Y4	Z4	X5	Y5	Z5	X6	Y6	Z6	X7	Y7	Z7	X8	Y8	Z8	X9	Y9	Z9	X10	Y10	Z10	X11	Y11	Z11	X12	Y12	Z12	X13	Y13	Z13	X14	Y14	Z14	X15	Y15	Z15	X16	Y16	Z16	X17	Y17	Z17	X18	Y18	Z18	X19	Y19	Z19	X20	Y20	Z20	X21	Y21	Z21	X22	Y22	Z22
292	4.866666666666666	313.52762940906064	543.5669671560762	0.0	285.42281465411867	554.8938253361383	0.0	279.38941626171476	688.384270109263	0.0	273.266577953826	804.0624495142699	0.0	313.2864339725664	847.04057406782	0.0	288.17501117258365	850.5594975799645	0.0	260.65247553527263	819.3850857170988	0.0	338.5652802285009	554.4067892356694	0.0	327.6725656870215	681.6335015197429	0.0	311.6453419996293	785.4405510908734	0.0	348.4956668445135	823.6833780981605	0.0	354.54142017588873	813.177816170312	0.0	300.91754017196257	803.2823929705902	0.0	342.2677987205114	330.79217888393936	0.0	381.46082587163687	238.07290101460416	0.0	385.84956266405754	293.1310041066453	0.0	282.1446328298048	350.09829349379373	0.0	187.11248527017648	391.81482158125857	0.0	93.375431766022	399.1394656359896	0.0	369.80313443983334	362.9397513199664	0.0	384.8612042664684	409.03868084316895	0.0	444.14942040183035	431.1331099048512	0.0
293	4.883333333333333	313.39762376922937	542.954548354729	0.0	285.3334212409751	554.2363713591042	0.0	279.54869464283064	688.2649541615108	0.0	273.3102111744272	804.1632370493202	0.0	313.33615367694	847.3039512796043	0.0	288.27114287863367	850.7133253436695	0.0	260.66166601557194	819.329027737256	0.0	338.44351929597553	553.711754282799	0.0	327.90180785372996	681.3680221673927	0.0	311.8005291421571	785.3868414562897	0.0	348.69876436683626	823.737528672684	0.0	354.67298889532464	813.2709761609201	0.0	301.05405172287624	803.008791184036	0.0	341.47926637257234	330.6196970025755	0.0	380.81337475243504	238.17900887350447	0.0	384.94156372623394	292.97032185331557	0.0	281.6886163335061	348.9858975176781	0.0	186.54816560150036	385.3245761548391	0.0	95.48179126277331	380.04140225229315	0.0	370.06791695060326	362.82515783767064	0.0	391.5993802818943	403.7764179176993	0.0	454.18999877208273	419.60950634733774	0.0
294	4.9	313.2151473968106	542.4070076244698	0.0	285.1726015753842	553.5710739849376	0.0	279.6064197410725	688.1378280066207	0.0	273.3260690833781	804.2658160905603	0.0	313.37970839175773	847.6229237060237	0.0	288.3924828516914	850.8626576814004	0.0	260.68344037268497	819.2783364601142	0.0	338.2904000257329	553.0369733610393	0.0	328.103104485976	681.1487704541174	0.0	311.9528158819487	785.3685301234595	0.0	348.89867471018766	823.8073777289701	0.0	354.7992722216554	813.3935902739759	0.0	301.22657314081454	802.7389043469034	0.0	340.53835653294016	330.43173161490097	0.0	379.88996352622456	238.22610595966387	0.0	383.8288556444707	292.7736660084033	0.0	281.0795016071543	347.85191546156784	0.0	187.14252991916638	379.1856510233012	0.0	101.58355222684942	361.4604436439188	0.0	370.4005292621614	362.81085148666756	0.0	398.7105643922709	398.9368537696049	0.0	464.2735990003466	408.26851468642496	0.0
295	4.916666666666667	312.989208366342	541.9304051296018	0.0	284.9488608538515	552.9096656254956	0.0	279.56921763914954	687.9974378877836	0.0	273.31364800483146	804.3719147427747	0.0	313.4081253624857	847.9862784741321	0.0	288.523968645022	850.9976946453403	0.0	260.7233767678277	819.2386030797912	0.0	338.11130429194094	552.3956608583194	0.0	328.2657606362169	680.9921499318959	0.0	312.0990204253049	785.3866703701046	0.0	349.0623363903935	823.8974681517445	0.0	354.9045093943841	813.5515910099217	0.0	301.4267316869988	802.4856068409197	0.0	339.4850877180947	330.234929881078	0.0	378.719864362805	238.2148720827565	0.0	382.57510384724736	292.55395343779094	0.0	280.3579482660777	346.7278233365979	0.0	188.9018073005822	373.45540519756236	0.0	111.57556749059785	343.76085375235135	0.0	370.7949172593923	362.8503570554823	0.0	406.00061168413725	394.5510419325978	0.0	474.1345608516556	397.2023703212268	0.0
296	4.933333333333334	312.73592489315917	541.5316130430897	0.0	284.6710165517409	552.2734554181609	0.0	279.45729036826566	687.8523666958444	0.0	273.28154439355893	804.4931807781395	0.0	313.4120113537038	848.3773555899153	0.0	288.644827042319	851.1080588792217	0.0	260.80111173078836	819.2229352583693	0.0	337.9169880209913	551.810029799818	0.0	328.3849524308109	680.9125710394079	0.0	312.2370694698624	785.4436509015536	0.0	349.1707402458872	824.0087730142951	0.0	354.983250610202	813.7416560686464	0.0	301.6398599572207	802.262581347303	0.0	338.3565050701922	330.0366467084807	0.0	377.336843666917	238.15791062553308	0.0	381.23761433864286	292.3301257141221	0.0	279.559833718264	345.6608273276101	0.0	191.80966242262747	368.2261287675648	0.0	125.21587363233313	327.34640886293187	0.0	371.2286067949887	362.9107580899256	0.0	413.2816192363805	390.65663655394064	0.0	483.54237926123426	386.5501504793946	0.0
297	4.95	312.4781297198861	541.2093874980229	0.0	284.349199555337	551.6701768168991	0.0	279.30105384771525	687.7161113623516	0.0	273.2475017479272	804.6523689627634	0.0	313.3774412861368	848.7785308031856	0.0	288.7295322701608	851.18831834333	0.0	260.9465495661791	819.2544410735663	0.0	337.7294594946874	551.2822169648487	0.0	328.46879952047595	680.9091599158274	0.0	312.3675860186766	785.5480511810622	0.0	349.22925214065503	824.1345700310369	0.0	355.0408450162746	813.9499203903213	0.0	301.84988060402304	802.090464135637	0.0	337.19087693158934	329.83562797489986	0.0	375.79121104312605	238.0691279755917	0.0	379.8570987272735	292.1193590531175	0.0	278.7151200375216	344.70339461781987	0.0	195.84321114507756	363.6249063579216	0.0	142.13541978487115	312.6606957677577	0.0	371.6684817057554	362.9757751760602	0.0	420.359969582146	387.30505132839176	0.0	492.28967582959734	376.50296037756175	0.0
